<svg width="1200" height="800" viewBox="0 0 1200 800" fill="none" xmlns="http://www.w3.org/2000/svg">
  <rect width="1200" height="800" rx="40" fill="url(#bg)"/>
  <rect x="84" y="88" width="1032" height="624" rx="34" fill="white" fill-opacity="0.82"/>
  <rect x="138" y="144" width="312" height="258" rx="28" fill="#DBEAFE"/>
  <rect x="478" y="144" width="268" height="258" rx="28" fill="#EDE9FE"/>
  <rect x="774" y="144" width="286" height="258" rx="28" fill="#ECFCCB"/>
  <rect x="138" y="436" width="922" height="220" rx="30" fill="#111827"/>
  <rect x="184" y="198" width="188" height="20" rx="10" fill="#1D4ED8"/>
  <rect x="184" y="248" width="214" height="16" rx="8" fill="#93C5FD"/>
  <rect x="522" y="198" width="166" height="20" rx="10" fill="#7C3AED"/>
  <rect x="522" y="248" width="174" height="16" rx="8" fill="#C4B5FD"/>
  <rect x="818" y="198" width="182" height="20" rx="10" fill="#65A30D"/>
  <rect x="818" y="248" width="164" height="16" rx="8" fill="#BEF264"/>
  <rect x="184" y="490" width="214" height="18" rx="9" fill="#67E8F9"/>
  <rect x="184" y="540" width="776" height="16" rx="8" fill="#E5E7EB" fill-opacity="0.78"/>
  <rect x="184" y="582" width="642" height="16" rx="8" fill="#E5E7EB" fill-opacity="0.55"/>
  <defs>
    <linearGradient id="bg" x1="96" y1="72" x2="1098" y2="742" gradientUnits="userSpaceOnUse">
      <stop stop-color="#E0F2FE"/>
      <stop offset="0.55" stop-color="#EEF2FF"/>
      <stop offset="1" stop-color="#DCFCE7"/>
    </linearGradient>
  </defs>
</svg>
