<svg width="1200" height="800" viewBox="0 0 1200 800" fill="none" xmlns="http://www.w3.org/2000/svg">
  <rect width="1200" height="800" rx="40" fill="url(#bg)"/>
  <rect x="86" y="96" width="1028" height="610" rx="32" fill="#FFFBEB"/>
  <rect x="138" y="150" width="310" height="230" rx="28" fill="#FDE68A"/>
  <rect x="478" y="150" width="274" height="230" rx="28" fill="#FEF3C7"/>
  <rect x="782" y="150" width="280" height="230" rx="28" fill="#F9FAFB"/>
  <rect x="138" y="416" width="924" height="238" rx="30" fill="white"/>
  <rect x="184" y="204" width="164" height="20" rx="10" fill="#92400E"/>
  <rect x="184" y="250" width="210" height="16" rx="8" fill="#FBBF24"/>
  <rect x="524" y="204" width="154" height="20" rx="10" fill="#B45309"/>
  <rect x="524" y="250" width="180" height="16" rx="8" fill="#FCD34D"/>
  <rect x="828" y="204" width="164" height="20" rx="10" fill="#D97706"/>
  <rect x="828" y="250" width="188" height="16" rx="8" fill="#FDE68A"/>
  <rect x="184" y="470" width="286" height="18" rx="9" fill="#F59E0B"/>
  <rect x="184" y="516" width="722" height="16" rx="8" fill="#E5E7EB"/>
  <rect x="184" y="556" width="644" height="16" rx="8" fill="#E5E7EB"/>
  <defs>
    <linearGradient id="bg" x1="96" y1="66" x2="1094" y2="744" gradientUnits="userSpaceOnUse">
      <stop stop-color="#FEF3C7"/>
      <stop offset="0.6" stop-color="#FFFBEB"/>
      <stop offset="1" stop-color="#FDE68A"/>
    </linearGradient>
  </defs>
</svg>
